<?xml version="1.0" encoding="UTF-8" standalone="no"?>
<!-- This is a Stata 16.0 generated SVG file (http://www.stata.com) -->

<svg version="1.1" width="600px" height="600px" viewBox="0 0 1584 1584" xmlns="http://www.w3.org/2000/svg" xmlns:xlink="http://www.w3.org/1999/xlink">
	<desc>Stata Graph - Graph</desc>
	<rect x="0" y="0" width="1584" height="1584" style="fill:#C6D3DF;stroke:none"/>
	<rect x="0.00" y="0.05" width="1584.00" height="1583.95" style="fill:#C6D3DF"/>
	<rect x="1.58" y="1.63" width="1580.83" height="1580.78" style="fill:none;stroke:#C6D3DF;stroke-width:3.17"/>
	<line x1="55.44" y1="1442.08" x2="1376.84" y2="1442.08" style="stroke:#FFFFFF;stroke-width:4.75"/>
	<line x1="55.44" y1="1097.81" x2="1376.84" y2="1097.81" style="stroke:#FFFFFF;stroke-width:4.75"/>
	<line x1="55.44" y1="753.54" x2="1376.84" y2="753.54" style="stroke:#FFFFFF;stroke-width:4.75"/>
	<line x1="55.44" y1="409.27" x2="1376.84" y2="409.27" style="stroke:#FFFFFF;stroke-width:4.75"/>
	<line x1="55.44" y1="64.99" x2="1376.84" y2="64.99" style="stroke:#FFFFFF;stroke-width:4.75"/>
	<circle cx="64.90" cy="1442.08" r="9.60" style="fill:#3E647D"/>
	<circle cx="64.90" cy="1442.08" r="0.10" style="fill:none;stroke:#3E647D;stroke-width:19.01"/>
	<circle cx="499.03" cy="1097.81" r="50.34" style="fill:#3E647D"/>
	<circle cx="499.03" cy="1097.81" r="40.84" style="fill:none;stroke:#3E647D;stroke-width:19.01"/>
	<circle cx="933.20" cy="1097.81" r="55.19" style="fill:#3E647D"/>
	<circle cx="933.20" cy="1097.81" r="45.69" style="fill:none;stroke:#3E647D;stroke-width:19.01"/>
	<circle cx="716.14" cy="1097.81" r="59.55" style="fill:#3E647D"/>
	<circle cx="716.14" cy="1097.81" r="50.05" style="fill:none;stroke:#3E647D;stroke-width:19.01"/>
	<circle cx="1367.33" cy="1097.81" r="55.19" style="fill:#3E647D"/>
	<circle cx="1367.33" cy="1097.81" r="45.69" style="fill:none;stroke:#3E647D;stroke-width:19.01"/>
	<circle cx="281.96" cy="1097.81" r="50.34" style="fill:#3E647D"/>
	<circle cx="281.96" cy="1097.81" r="40.84" style="fill:none;stroke:#3E647D;stroke-width:19.01"/>
	<circle cx="1150.27" cy="1097.81" r="55.19" style="fill:#3E647D"/>
	<circle cx="1150.27" cy="1097.81" r="45.69" style="fill:none;stroke:#3E647D;stroke-width:19.01"/>
	<circle cx="933.20" cy="753.54" r="38.41" style="fill:#3E647D"/>
	<circle cx="933.20" cy="753.54" r="28.91" style="fill:none;stroke:#3E647D;stroke-width:19.01"/>
	<circle cx="716.14" cy="753.54" r="38.41" style="fill:#3E647D"/>
	<circle cx="716.14" cy="753.54" r="28.91" style="fill:none;stroke:#3E647D;stroke-width:19.01"/>
	<circle cx="1150.27" cy="753.54" r="38.41" style="fill:#3E647D"/>
	<circle cx="1150.27" cy="753.54" r="28.91" style="fill:none;stroke:#3E647D;stroke-width:19.01"/>
	<circle cx="281.96" cy="753.54" r="63.56" style="fill:#3E647D"/>
	<circle cx="281.96" cy="753.54" r="54.06" style="fill:none;stroke:#3E647D;stroke-width:19.01"/>
	<circle cx="1367.33" cy="753.54" r="38.41" style="fill:#3E647D"/>
	<circle cx="1367.33" cy="753.54" r="28.91" style="fill:none;stroke:#3E647D;stroke-width:19.01"/>
	<circle cx="499.03" cy="753.54" r="63.56" style="fill:#3E647D"/>
	<circle cx="499.03" cy="753.54" r="54.06" style="fill:none;stroke:#3E647D;stroke-width:19.01"/>
	<circle cx="1150.27" cy="409.27" r="67.27" style="fill:#3E647D"/>
	<circle cx="1150.27" cy="409.27" r="57.77" style="fill:none;stroke:#3E647D;stroke-width:19.01"/>
	<circle cx="499.03" cy="409.27" r="63.56" style="fill:#3E647D"/>
	<circle cx="499.03" cy="409.27" r="54.06" style="fill:none;stroke:#3E647D;stroke-width:19.01"/>
	<circle cx="933.20" cy="409.27" r="67.27" style="fill:#3E647D"/>
	<circle cx="933.20" cy="409.27" r="57.77" style="fill:none;stroke:#3E647D;stroke-width:19.01"/>
	<circle cx="1367.33" cy="409.27" r="55.19" style="fill:#3E647D"/>
	<circle cx="1367.33" cy="409.27" r="45.69" style="fill:none;stroke:#3E647D;stroke-width:19.01"/>
	<circle cx="716.14" cy="409.27" r="59.55" style="fill:#3E647D"/>
	<circle cx="716.14" cy="409.27" r="50.05" style="fill:none;stroke:#3E647D;stroke-width:19.01"/>
	<circle cx="281.96" cy="409.27" r="63.56" style="fill:#3E647D"/>
	<circle cx="281.96" cy="409.27" r="54.06" style="fill:none;stroke:#3E647D;stroke-width:19.01"/>
	<circle cx="933.20" cy="64.99" r="55.19" style="fill:#3E647D"/>
	<circle cx="933.20" cy="64.99" r="45.69" style="fill:none;stroke:#3E647D;stroke-width:19.01"/>
	<circle cx="499.03" cy="64.99" r="38.41" style="fill:#3E647D"/>
	<circle cx="499.03" cy="64.99" r="28.91" style="fill:none;stroke:#3E647D;stroke-width:19.01"/>
	<circle cx="1150.27" cy="64.99" r="55.19" style="fill:#3E647D"/>
	<circle cx="1150.27" cy="64.99" r="45.69" style="fill:none;stroke:#3E647D;stroke-width:19.01"/>
	<circle cx="281.96" cy="64.99" r="38.41" style="fill:#3E647D"/>
	<circle cx="281.96" cy="64.99" r="28.91" style="fill:none;stroke:#3E647D;stroke-width:19.01"/>
	<circle cx="716.14" cy="64.99" r="59.55" style="fill:#3E647D"/>
	<circle cx="716.14" cy="64.99" r="50.05" style="fill:none;stroke:#3E647D;stroke-width:19.01"/>
	<circle cx="1367.33" cy="64.99" r="67.27" style="fill:#3E647D"/>
	<circle cx="1367.33" cy="64.99" r="57.77" style="fill:none;stroke:#3E647D;stroke-width:19.01"/>
	<text x="1398.81" y="1463.27" style="font-family:'Helvetica';font-size:60.49px;fill:#000000">0</text>
	<text x="1398.81" y="1118.99" style="font-family:'Helvetica';font-size:60.49px;fill:#000000">1</text>
	<text x="1398.81" y="774.72" style="font-family:'Helvetica';font-size:60.49px;fill:#000000">2</text>
	<text x="1398.81" y="430.45" style="font-family:'Helvetica';font-size:60.49px;fill:#000000">3</text>
	<text x="1398.81" y="86.18" style="font-family:'Helvetica';font-size:60.49px;fill:#000000">4</text>
	<text x="1499.40" y="753.54" style="font-family:'Helvetica';font-size:60.49px;fill:#000000" transform="rotate(-90 1499.40,753.54)" text-anchor="middle">equation</text>
	<line x1="55.44" y1="1451.59" x2="1376.84" y2="1451.59" style="stroke:#000000;stroke-width:3.17"/>
	<text x="716.14" y="1499.40" style="font-family:'Helvetica';font-size:60.49px;fill:#000000" text-anchor="middle">experiment</text>
</svg>
